<svg width="71" height="45" viewBox="0 0 71 45" fill="none" xmlns="http://www.w3.org/2000/svg">
<path d="M24.4188 8.699L6.52286 26.4704C3.15028 29.8196 3.15028 35.2496 6.52286 38.5987C9.89544 41.9478 15.3635 41.9478 18.7361 38.5987L36.632 20.8272C40.0046 17.4781 40.0046 12.0481 36.632 8.699C33.2594 5.34988 27.7914 5.34988 24.4188 8.699Z" fill="#F49800"/>
<path fill-rule="evenodd" clip-rule="evenodd" d="M67.7603 2.51327C64.408 -0.815702 58.9023 -0.815702 55.55 2.51327L37.6785 20.2604C34.3262 23.5894 34.3262 29.0568 37.6785 32.3858C41.0308 35.7148 46.5366 35.7148 49.8889 32.3858L67.7603 14.6387C71.1126 11.3097 71.1126 5.84224 67.7603 2.51327Z" fill="#54C2E2"/>
<path d="M37.6341 37.7871C47.5778 37.7871 55.6388 29.7822 55.6388 19.9077C55.6388 10.0332 47.5778 2.02827 37.6341 2.02827C27.6904 2.02827 19.6294 10.0332 19.6294 19.9077C19.6294 29.7822 27.6904 37.7871 37.6341 37.7871Z" fill="#2C56A4"/>
<path fill-rule="evenodd" clip-rule="evenodd" d="M50.5547 7.4516C53.7071 10.6703 55.6386 15.0575 55.6386 19.9077C55.6386 29.7844 47.5798 37.7871 37.6339 37.7871C32.772 37.7871 28.3319 35.8691 25.0906 32.7385L50.5547 7.4516Z" fill="#407EC1"/>
</svg>
