<svg width="1920" height="722" viewBox="0 0 1920 722" fill="none" xmlns="http://www.w3.org/2000/svg">
<g opacity="0.08">
<rect width="1920" height="722" fill="white" fill-opacity="0.1"/>
<g clip-path="url(#clip0_389_5807)">
<path d="M-22.0952 -15.1748L-72.8449 35.5388C-82.4089 45.0961 -82.4089 60.5914 -72.8449 70.1487C-63.2809 79.7059 -47.7745 79.7059 -38.2105 70.1487L12.5392 19.435C22.1032 9.87779 22.1032 -5.61756 12.5392 -15.1748C2.97517 -24.732 -12.5312 -24.732 -22.0952 -15.1748Z" fill="#F49800"/>
<path fillRule="evenodd" clipRule="evenodd" d="M100.811 -32.8283C91.305 -42.3281 75.6917 -42.3281 66.1852 -32.8283L15.5049 17.816C5.99838 27.3158 5.99838 42.918 15.5049 52.4177C25.0114 61.9175 40.6247 61.9175 50.1312 52.4177L100.811 1.7734C110.318 -7.72635 110.318 -23.3286 100.811 -32.8283Z" fill="#54C2E2"/>
<path d="M15.3803 67.8307C43.5789 67.8307 66.4384 44.9875 66.4384 16.8089C66.4384 -11.3697 43.5789 -34.2129 15.3803 -34.2129C-12.8183 -34.2129 -35.6777 -11.3697 -35.6777 16.8089C-35.6777 44.9875 -12.8183 67.8307 15.3803 67.8307Z" fill="#2C56A4"/>
<path fillRule="evenodd" clipRule="evenodd" d="M52.0202 -18.7344C60.9601 -9.54919 66.4373 2.97034 66.4373 16.811C66.4373 44.9957 43.584 67.8328 15.3792 67.8328C1.59168 67.8328 -10.9997 62.3595 -20.1914 53.4259L52.0202 -18.7344Z" fill="#407EC1"/>
</g>
<g clip-path="url(#clip1_389_5807)">
<path d="M-22.0952 338.823L-72.8449 389.537C-82.4089 399.094 -82.4089 414.589 -72.8449 424.147C-63.2809 433.704 -47.7745 433.704 -38.2105 424.147L12.5392 373.433C22.1032 363.876 22.1032 348.38 12.5392 338.823C2.97517 329.266 -12.5312 329.266 -22.0952 338.823Z" fill="#F49800"/>
<path fillRule="evenodd" clipRule="evenodd" d="M100.811 321.172C91.305 311.672 75.6917 311.672 66.1852 321.172L15.5049 371.816C5.99838 381.316 5.99838 396.918 15.5049 406.418C25.0114 415.917 40.6247 415.917 50.1312 406.418L100.811 355.773C110.318 346.274 110.318 330.671 100.811 321.172Z" fill="#54C2E2"/>
<path d="M15.3803 421.831C43.5789 421.831 66.4384 398.987 66.4384 370.809C66.4384 342.63 43.5789 319.787 15.3803 319.787C-12.8183 319.787 -35.6777 342.63 -35.6777 370.809C-35.6777 398.987 -12.8183 421.831 15.3803 421.831Z" fill="#2C56A4"/>
<path fillRule="evenodd" clipRule="evenodd" d="M52.0202 335.264C60.9601 344.449 66.4373 356.968 66.4373 370.809C66.4373 398.994 43.584 421.831 15.3792 421.831C1.59168 421.831 -10.9997 416.358 -20.1914 407.424L52.0202 335.264Z" fill="#407EC1"/>
</g>
<g clip-path="url(#clip2_389_5807)">
<path d="M-22.0952 692.823L-72.8449 743.537C-82.4089 753.094 -82.4089 768.589 -72.8449 778.147C-63.2809 787.704 -47.7745 787.704 -38.2105 778.147L12.5392 727.433C22.1032 717.876 22.1032 702.38 12.5392 692.823C2.97517 683.266 -12.5312 683.266 -22.0952 692.823Z" fill="#F49800"/>
<path fillRule="evenodd" clipRule="evenodd" d="M100.811 675.172C91.305 665.672 75.6917 665.672 66.1852 675.172L15.5049 725.816C5.99838 735.316 5.99838 750.918 15.5049 760.418C25.0114 769.917 40.6247 769.917 50.1312 760.418L100.811 709.773C110.318 700.274 110.318 684.671 100.811 675.172Z" fill="#54C2E2"/>
<path d="M15.3803 775.831C43.5789 775.831 66.4384 752.987 66.4384 724.809C66.4384 696.63 43.5789 673.787 15.3803 673.787C-12.8183 673.787 -35.6777 696.63 -35.6777 724.809C-35.6777 752.987 -12.8183 775.831 15.3803 775.831Z" fill="#2C56A4"/>
<path fillRule="evenodd" clipRule="evenodd" d="M52.0202 689.264C60.9601 698.449 66.4373 710.968 66.4373 724.809C66.4373 752.994 43.584 775.831 15.3792 775.831C1.59168 775.831 -10.9997 770.358 -20.1914 761.424L52.0202 689.264Z" fill="#407EC1"/>
</g>
<g clip-path="url(#clip3_389_5807)">
<path d="M205.905 161.823L155.155 212.537C145.591 222.094 145.591 237.589 155.155 247.147C164.719 256.704 180.225 256.704 189.79 247.147L240.539 196.433C250.103 186.876 250.103 171.38 240.539 161.823C230.975 152.266 215.469 152.266 205.905 161.823Z" fill="#F49800"/>
<path fillRule="evenodd" clipRule="evenodd" d="M328.811 144.172C319.305 134.672 303.692 134.672 294.185 144.172L243.505 194.816C233.998 204.316 233.998 219.918 243.505 229.418C253.011 238.917 268.625 238.917 278.131 229.418L328.811 178.773C338.318 169.274 338.318 153.671 328.811 144.172Z" fill="#54C2E2"/>
<path d="M243.38 244.831C271.579 244.831 294.438 221.987 294.438 193.809C294.438 165.63 271.579 142.787 243.38 142.787C215.182 142.787 192.322 165.63 192.322 193.809C192.322 221.987 215.182 244.831 243.38 244.831Z" fill="#2C56A4"/>
<path fillRule="evenodd" clipRule="evenodd" d="M280.02 158.266C288.96 167.451 294.437 179.97 294.437 193.811C294.437 221.996 271.584 244.833 243.379 244.833C229.592 244.833 217 239.359 207.809 230.426L280.02 158.266Z" fill="#407EC1"/>
</g>
<g clip-path="url(#clip4_389_5807)">
<path d="M205.905 515.823L155.155 566.537C145.591 576.094 145.591 591.589 155.155 601.147C164.719 610.704 180.225 610.704 189.79 601.147L240.539 550.433C250.103 540.876 250.103 525.38 240.539 515.823C230.975 506.266 215.469 506.266 205.905 515.823Z" fill="#F49800"/>
<path fillRule="evenodd" clipRule="evenodd" d="M328.811 498.172C319.305 488.672 303.692 488.672 294.185 498.172L243.505 548.816C233.998 558.316 233.998 573.918 243.505 583.418C253.011 592.917 268.625 592.917 278.131 583.418L328.811 532.773C338.318 523.274 338.318 507.671 328.811 498.172Z" fill="#54C2E2"/>
<path d="M243.38 598.831C271.579 598.831 294.438 575.987 294.438 547.809C294.438 519.63 271.579 496.787 243.38 496.787C215.182 496.787 192.322 519.63 192.322 547.809C192.322 575.987 215.182 598.831 243.38 598.831Z" fill="#2C56A4"/>
<path fillRule="evenodd" clipRule="evenodd" d="M280.02 512.264C288.96 521.449 294.437 533.968 294.437 547.809C294.437 575.994 271.584 598.831 243.379 598.831C229.592 598.831 217 593.358 207.809 584.424L280.02 512.264Z" fill="#407EC1"/>
</g>
<g clip-path="url(#clip5_389_5807)">
<path d="M753.905 161.823L703.155 212.537C693.591 222.094 693.591 237.589 703.155 247.147C712.719 256.704 728.225 256.704 737.79 247.147L788.539 196.433C798.103 186.876 798.103 171.38 788.539 161.823C778.975 152.266 763.469 152.266 753.905 161.823Z" fill="#F49800"/>
<path fillRule="evenodd" clipRule="evenodd" d="M876.811 144.172C867.305 134.672 851.692 134.672 842.185 144.172L791.505 194.816C781.998 204.316 781.998 219.918 791.505 229.418C801.011 238.917 816.625 238.917 826.131 229.418L876.811 178.773C886.318 169.274 886.318 153.671 876.811 144.172Z" fill="#54C2E2"/>
<path d="M791.38 244.831C819.579 244.831 842.438 221.987 842.438 193.809C842.438 165.63 819.579 142.787 791.38 142.787C763.182 142.787 740.322 165.63 740.322 193.809C740.322 221.987 763.182 244.831 791.38 244.831Z" fill="#2C56A4"/>
<path fillRule="evenodd" clipRule="evenodd" d="M828.02 158.266C836.96 167.451 842.437 179.97 842.437 193.811C842.437 221.996 819.584 244.833 791.379 244.833C777.592 244.833 765 239.359 755.809 230.426L828.02 158.266Z" fill="#407EC1"/>
</g>
<g clip-path="url(#clip6_389_5807)">
<path d="M753.905 515.823L703.155 566.537C693.591 576.094 693.591 591.589 703.155 601.147C712.719 610.704 728.225 610.704 737.79 601.147L788.539 550.433C798.103 540.876 798.103 525.38 788.539 515.823C778.975 506.266 763.469 506.266 753.905 515.823Z" fill="#F49800"/>
<path fillRule="evenodd" clipRule="evenodd" d="M876.811 498.172C867.305 488.672 851.692 488.672 842.185 498.172L791.505 548.816C781.998 558.316 781.998 573.918 791.505 583.418C801.011 592.917 816.625 592.917 826.131 583.418L876.811 532.773C886.318 523.274 886.318 507.671 876.811 498.172Z" fill="#54C2E2"/>
<path d="M791.38 598.831C819.579 598.831 842.438 575.987 842.438 547.809C842.438 519.63 819.579 496.787 791.38 496.787C763.182 496.787 740.322 519.63 740.322 547.809C740.322 575.987 763.182 598.831 791.38 598.831Z" fill="#2C56A4"/>
<path fillRule="evenodd" clipRule="evenodd" d="M828.02 512.264C836.96 521.449 842.437 533.968 842.437 547.809C842.437 575.994 819.584 598.831 791.379 598.831C777.592 598.831 765 593.358 755.809 584.424L828.02 512.264Z" fill="#407EC1"/>
</g>
<g clip-path="url(#clip7_389_5807)">
<path d="M1301.9 161.823L1251.16 212.537C1241.59 222.094 1241.59 237.589 1251.16 247.147C1260.72 256.704 1276.23 256.704 1285.79 247.147L1336.54 196.433C1346.1 186.876 1346.1 171.38 1336.54 161.823C1326.98 152.266 1311.47 152.266 1301.9 161.823Z" fill="#F49800"/>
<path fillRule="evenodd" clipRule="evenodd" d="M1424.81 144.172C1415.3 134.672 1399.69 134.672 1390.19 144.172L1339.5 194.816C1330 204.316 1330 219.918 1339.5 229.418C1349.01 238.917 1364.62 238.917 1374.13 229.418L1424.81 178.773C1434.32 169.274 1434.32 153.671 1424.81 144.172Z" fill="#54C2E2"/>
<path d="M1339.38 244.831C1367.58 244.831 1390.44 221.987 1390.44 193.809C1390.44 165.63 1367.58 142.787 1339.38 142.787C1311.18 142.787 1288.32 165.63 1288.32 193.809C1288.32 221.987 1311.18 244.831 1339.38 244.831Z" fill="#2C56A4"/>
<path fillRule="evenodd" clipRule="evenodd" d="M1376.02 158.266C1384.96 167.451 1390.44 179.97 1390.44 193.811C1390.44 221.996 1367.58 244.833 1339.38 244.833C1325.59 244.833 1313 239.359 1303.81 230.426L1376.02 158.266Z" fill="#407EC1"/>
</g>
<g clip-path="url(#clip8_389_5807)">
<path d="M1301.9 515.823L1251.16 566.537C1241.59 576.094 1241.59 591.589 1251.16 601.147C1260.72 610.704 1276.23 610.704 1285.79 601.147L1336.54 550.433C1346.1 540.876 1346.1 525.38 1336.54 515.823C1326.98 506.266 1311.47 506.266 1301.9 515.823Z" fill="#F49800"/>
<path fillRule="evenodd" clipRule="evenodd" d="M1424.81 498.172C1415.3 488.672 1399.69 488.672 1390.19 498.172L1339.5 548.816C1330 558.316 1330 573.918 1339.5 583.418C1349.01 592.917 1364.62 592.917 1374.13 583.418L1424.81 532.773C1434.32 523.274 1434.32 507.671 1424.81 498.172Z" fill="#54C2E2"/>
<path d="M1339.38 598.831C1367.58 598.831 1390.44 575.987 1390.44 547.809C1390.44 519.63 1367.58 496.787 1339.38 496.787C1311.18 496.787 1288.32 519.63 1288.32 547.809C1288.32 575.987 1311.18 598.831 1339.38 598.831Z" fill="#2C56A4"/>
<path fillRule="evenodd" clipRule="evenodd" d="M1376.02 512.264C1384.96 521.449 1390.44 533.968 1390.44 547.809C1390.44 575.994 1367.58 598.831 1339.38 598.831C1325.59 598.831 1313 593.358 1303.81 584.424L1376.02 512.264Z" fill="#407EC1"/>
</g>
<g clip-path="url(#clip9_389_5807)">
<path d="M1849.9 161.823L1799.16 212.537C1789.59 222.094 1789.59 237.589 1799.16 247.147C1808.72 256.704 1824.23 256.704 1833.79 247.147L1884.54 196.433C1894.1 186.876 1894.1 171.38 1884.54 161.823C1874.98 152.266 1859.47 152.266 1849.9 161.823Z" fill="#F49800"/>
<path fillRule="evenodd" clipRule="evenodd" d="M1972.81 144.172C1963.3 134.672 1947.69 134.672 1938.19 144.172L1887.5 194.816C1878 204.316 1878 219.918 1887.5 229.418C1897.01 238.917 1912.62 238.917 1922.13 229.418L1972.81 178.773C1982.32 169.274 1982.32 153.671 1972.81 144.172Z" fill="#54C2E2"/>
<path d="M1887.38 244.831C1915.58 244.831 1938.44 221.987 1938.44 193.809C1938.44 165.63 1915.58 142.787 1887.38 142.787C1859.18 142.787 1836.32 165.63 1836.32 193.809C1836.32 221.987 1859.18 244.831 1887.38 244.831Z" fill="#2C56A4"/>
<path fillRule="evenodd" clipRule="evenodd" d="M1924.02 158.266C1932.96 167.451 1938.44 179.97 1938.44 193.811C1938.44 221.996 1915.58 244.833 1887.38 244.833C1873.59 244.833 1861 239.359 1851.81 230.426L1924.02 158.266Z" fill="#407EC1"/>
</g>
<g clip-path="url(#clip10_389_5807)">
<path d="M1849.9 515.823L1799.16 566.537C1789.59 576.094 1789.59 591.589 1799.16 601.147C1808.72 610.704 1824.23 610.704 1833.79 601.147L1884.54 550.433C1894.1 540.876 1894.1 525.38 1884.54 515.823C1874.98 506.266 1859.47 506.266 1849.9 515.823Z" fill="#F49800"/>
<path fillRule="evenodd" clipRule="evenodd" d="M1972.81 498.172C1963.3 488.672 1947.69 488.672 1938.19 498.172L1887.5 548.816C1878 558.316 1878 573.918 1887.5 583.418C1897.01 592.917 1912.62 592.917 1922.13 583.418L1972.81 532.773C1982.32 523.274 1982.32 507.671 1972.81 498.172Z" fill="#54C2E2"/>
<path d="M1887.38 598.831C1915.58 598.831 1938.44 575.987 1938.44 547.809C1938.44 519.63 1915.58 496.787 1887.38 496.787C1859.18 496.787 1836.32 519.63 1836.32 547.809C1836.32 575.987 1859.18 598.831 1887.38 598.831Z" fill="#2C56A4"/>
<path fillRule="evenodd" clipRule="evenodd" d="M1924.02 512.264C1932.96 521.449 1938.44 533.968 1938.44 547.809C1938.44 575.994 1915.58 598.831 1887.38 598.831C1873.59 598.831 1861 593.358 1851.81 584.424L1924.02 512.264Z" fill="#407EC1"/>
</g>
<g clip-path="url(#clip11_389_5807)">
<path d="M479.905 -15.1748L429.155 35.5388C419.591 45.0961 419.591 60.5914 429.155 70.1487C438.719 79.7059 454.225 79.7059 463.79 70.1487L514.539 19.435C524.103 9.87779 524.103 -5.61756 514.539 -15.1748C504.975 -24.732 489.469 -24.732 479.905 -15.1748Z" fill="#F49800"/>
<path fillRule="evenodd" clipRule="evenodd" d="M602.811 -32.8283C593.305 -42.3281 577.692 -42.3281 568.185 -32.8283L517.505 17.816C507.998 27.3158 507.998 42.918 517.505 52.4177C527.011 61.9175 542.625 61.9175 552.131 52.4177L602.811 1.7734C612.318 -7.72635 612.318 -23.3286 602.811 -32.8283Z" fill="#54C2E2"/>
<path d="M517.38 67.8307C545.579 67.8307 568.438 44.9875 568.438 16.8089C568.438 -11.3697 545.579 -34.2129 517.38 -34.2129C489.182 -34.2129 466.322 -11.3697 466.322 16.8089C466.322 44.9875 489.182 67.8307 517.38 67.8307Z" fill="#2C56A4"/>
<path fillRule="evenodd" clipRule="evenodd" d="M554.02 -18.7344C562.96 -9.54919 568.437 2.97034 568.437 16.811C568.437 44.9957 545.584 67.8328 517.379 67.8328C503.592 67.8328 491 62.3595 481.809 53.4259L554.02 -18.7344Z" fill="#407EC1"/>
</g>
<g clip-path="url(#clip12_389_5807)">
<path d="M479.905 338.823L429.155 389.537C419.591 399.094 419.591 414.589 429.155 424.147C438.719 433.704 454.225 433.704 463.79 424.147L514.539 373.433C524.103 363.876 524.103 348.38 514.539 338.823C504.975 329.266 489.469 329.266 479.905 338.823Z" fill="#F49800"/>
<path fillRule="evenodd" clipRule="evenodd" d="M602.811 321.172C593.305 311.672 577.692 311.672 568.185 321.172L517.505 371.816C507.998 381.316 507.998 396.918 517.505 406.418C527.011 415.917 542.625 415.917 552.131 406.418L602.811 355.773C612.318 346.274 612.318 330.671 602.811 321.172Z" fill="#54C2E2"/>
<path d="M517.38 421.831C545.579 421.831 568.438 398.987 568.438 370.809C568.438 342.63 545.579 319.787 517.38 319.787C489.182 319.787 466.322 342.63 466.322 370.809C466.322 398.987 489.182 421.831 517.38 421.831Z" fill="#2C56A4"/>
<path fillRule="evenodd" clipRule="evenodd" d="M554.02 335.264C562.96 344.449 568.437 356.968 568.437 370.809C568.437 398.994 545.584 421.831 517.379 421.831C503.592 421.831 491 416.358 481.809 407.424L554.02 335.264Z" fill="#407EC1"/>
</g>
<g clip-path="url(#clip13_389_5807)">
<path d="M479.905 692.823L429.155 743.537C419.591 753.094 419.591 768.589 429.155 778.147C438.719 787.704 454.225 787.704 463.79 778.147L514.539 727.433C524.103 717.876 524.103 702.38 514.539 692.823C504.975 683.266 489.469 683.266 479.905 692.823Z" fill="#F49800"/>
<path fillRule="evenodd" clipRule="evenodd" d="M602.811 675.172C593.305 665.672 577.692 665.672 568.185 675.172L517.505 725.816C507.998 735.316 507.998 750.918 517.505 760.418C527.011 769.917 542.625 769.917 552.131 760.418L602.811 709.773C612.318 700.274 612.318 684.671 602.811 675.172Z" fill="#54C2E2"/>
<path d="M517.38 775.831C545.579 775.831 568.438 752.987 568.438 724.809C568.438 696.63 545.579 673.787 517.38 673.787C489.182 673.787 466.322 696.63 466.322 724.809C466.322 752.987 489.182 775.831 517.38 775.831Z" fill="#2C56A4"/>
<path fillRule="evenodd" clipRule="evenodd" d="M554.02 689.264C562.96 698.449 568.437 710.968 568.437 724.809C568.437 752.994 545.584 775.831 517.379 775.831C503.592 775.831 491 770.358 481.809 761.424L554.02 689.264Z" fill="#407EC1"/>
</g>
<g clip-path="url(#clip14_389_5807)">
<path d="M1027.9 -15.1748L977.155 35.5388C967.591 45.0961 967.591 60.5914 977.155 70.1487C986.719 79.7059 1002.23 79.7059 1011.79 70.1487L1062.54 19.435C1072.1 9.87779 1072.1 -5.61756 1062.54 -15.1748C1052.98 -24.732 1037.47 -24.732 1027.9 -15.1748Z" fill="#F49800"/>
<path fillRule="evenodd" clipRule="evenodd" d="M1150.81 -32.8283C1141.3 -42.3281 1125.69 -42.3281 1116.19 -32.8283L1065.5 17.816C1056 27.3158 1056 42.918 1065.5 52.4177C1075.01 61.9175 1090.62 61.9175 1100.13 52.4177L1150.81 1.7734C1160.32 -7.72635 1160.32 -23.3286 1150.81 -32.8283Z" fill="#54C2E2"/>
<path d="M1065.38 67.8307C1093.58 67.8307 1116.44 44.9875 1116.44 16.8089C1116.44 -11.3697 1093.58 -34.2129 1065.38 -34.2129C1037.18 -34.2129 1014.32 -11.3697 1014.32 16.8089C1014.32 44.9875 1037.18 67.8307 1065.38 67.8307Z" fill="#2C56A4"/>
<path fillRule="evenodd" clipRule="evenodd" d="M1102.02 -18.7344C1110.96 -9.54919 1116.44 2.97034 1116.44 16.811C1116.44 44.9957 1093.58 67.8328 1065.38 67.8328C1051.59 67.8328 1039 62.3595 1029.81 53.4259L1102.02 -18.7344Z" fill="#407EC1"/>
</g>
<g clip-path="url(#clip15_389_5807)">
<path d="M1027.9 338.823L977.155 389.537C967.591 399.094 967.591 414.589 977.155 424.147C986.719 433.704 1002.23 433.704 1011.79 424.147L1062.54 373.433C1072.1 363.876 1072.1 348.38 1062.54 338.823C1052.98 329.266 1037.47 329.266 1027.9 338.823Z" fill="#F49800"/>
<path fillRule="evenodd" clipRule="evenodd" d="M1150.81 321.172C1141.3 311.672 1125.69 311.672 1116.19 321.172L1065.5 371.816C1056 381.316 1056 396.918 1065.5 406.418C1075.01 415.917 1090.62 415.917 1100.13 406.418L1150.81 355.773C1160.32 346.274 1160.32 330.671 1150.81 321.172Z" fill="#54C2E2"/>
<path d="M1065.38 421.831C1093.58 421.831 1116.44 398.987 1116.44 370.809C1116.44 342.63 1093.58 319.787 1065.38 319.787C1037.18 319.787 1014.32 342.63 1014.32 370.809C1014.32 398.987 1037.18 421.831 1065.38 421.831Z" fill="#2C56A4"/>
<path fillRule="evenodd" clipRule="evenodd" d="M1102.02 335.264C1110.96 344.449 1116.44 356.968 1116.44 370.809C1116.44 398.994 1093.58 421.831 1065.38 421.831C1051.59 421.831 1039 416.358 1029.81 407.424L1102.02 335.264Z" fill="#407EC1"/>
</g>
<g clip-path="url(#clip16_389_5807)">
<path d="M1027.9 692.823L977.155 743.537C967.591 753.094 967.591 768.589 977.155 778.147C986.719 787.704 1002.23 787.704 1011.79 778.147L1062.54 727.433C1072.1 717.876 1072.1 702.38 1062.54 692.823C1052.98 683.266 1037.47 683.266 1027.9 692.823Z" fill="#F49800"/>
<path fillRule="evenodd" clipRule="evenodd" d="M1150.81 675.172C1141.3 665.672 1125.69 665.672 1116.19 675.172L1065.5 725.816C1056 735.316 1056 750.918 1065.5 760.418C1075.01 769.917 1090.62 769.917 1100.13 760.418L1150.81 709.773C1160.32 700.274 1160.32 684.671 1150.81 675.172Z" fill="#54C2E2"/>
<path d="M1065.38 775.831C1093.58 775.831 1116.44 752.987 1116.44 724.809C1116.44 696.63 1093.58 673.787 1065.38 673.787C1037.18 673.787 1014.32 696.63 1014.32 724.809C1014.32 752.987 1037.18 775.831 1065.38 775.831Z" fill="#2C56A4"/>
<path fillRule="evenodd" clipRule="evenodd" d="M1102.02 689.264C1110.96 698.449 1116.44 710.968 1116.44 724.809C1116.44 752.994 1093.58 775.831 1065.38 775.831C1051.59 775.831 1039 770.358 1029.81 761.424L1102.02 689.264Z" fill="#407EC1"/>
</g>
<g clip-path="url(#clip17_389_5807)">
<path d="M1575.9 -15.1748L1525.16 35.5388C1515.59 45.0961 1515.59 60.5914 1525.16 70.1487C1534.72 79.7059 1550.23 79.7059 1559.79 70.1487L1610.54 19.435C1620.1 9.87779 1620.1 -5.61756 1610.54 -15.1748C1600.98 -24.732 1585.47 -24.732 1575.9 -15.1748Z" fill="#F49800"/>
<path fillRule="evenodd" clipRule="evenodd" d="M1698.81 -32.8283C1689.3 -42.3281 1673.69 -42.3281 1664.19 -32.8283L1613.5 17.816C1604 27.3158 1604 42.918 1613.5 52.4177C1623.01 61.9175 1638.62 61.9175 1648.13 52.4177L1698.81 1.7734C1708.32 -7.72635 1708.32 -23.3286 1698.81 -32.8283Z" fill="#54C2E2"/>
<path d="M1613.38 67.8307C1641.58 67.8307 1664.44 44.9875 1664.44 16.8089C1664.44 -11.3697 1641.58 -34.2129 1613.38 -34.2129C1585.18 -34.2129 1562.32 -11.3697 1562.32 16.8089C1562.32 44.9875 1585.18 67.8307 1613.38 67.8307Z" fill="#2C56A4"/>
<path fillRule="evenodd" clipRule="evenodd" d="M1650.02 -18.7344C1658.96 -9.54919 1664.44 2.97034 1664.44 16.811C1664.44 44.9957 1641.58 67.8328 1613.38 67.8328C1599.59 67.8328 1587 62.3595 1577.81 53.4259L1650.02 -18.7344Z" fill="#407EC1"/>
</g>
<g clip-path="url(#clip18_389_5807)">
<path d="M1575.9 338.823L1525.16 389.537C1515.59 399.094 1515.59 414.589 1525.16 424.147C1534.72 433.704 1550.23 433.704 1559.79 424.147L1610.54 373.433C1620.1 363.876 1620.1 348.38 1610.54 338.823C1600.98 329.266 1585.47 329.266 1575.9 338.823Z" fill="#F49800"/>
<path fillRule="evenodd" clipRule="evenodd" d="M1698.81 321.172C1689.3 311.672 1673.69 311.672 1664.19 321.172L1613.5 371.816C1604 381.316 1604 396.918 1613.5 406.418C1623.01 415.917 1638.62 415.917 1648.13 406.418L1698.81 355.773C1708.32 346.274 1708.32 330.671 1698.81 321.172Z" fill="#54C2E2"/>
<path d="M1613.38 421.831C1641.58 421.831 1664.44 398.987 1664.44 370.809C1664.44 342.63 1641.58 319.787 1613.38 319.787C1585.18 319.787 1562.32 342.63 1562.32 370.809C1562.32 398.987 1585.18 421.831 1613.38 421.831Z" fill="#2C56A4"/>
<path fillRule="evenodd" clipRule="evenodd" d="M1650.02 335.264C1658.96 344.449 1664.44 356.968 1664.44 370.809C1664.44 398.994 1641.58 421.831 1613.38 421.831C1599.59 421.831 1587 416.358 1577.81 407.424L1650.02 335.264Z" fill="#407EC1"/>
</g>
<g clip-path="url(#clip19_389_5807)">
<path d="M1575.9 692.823L1525.16 743.537C1515.59 753.094 1515.59 768.589 1525.16 778.147C1534.72 787.704 1550.23 787.704 1559.79 778.147L1610.54 727.433C1620.1 717.876 1620.1 702.38 1610.54 692.823C1600.98 683.266 1585.47 683.266 1575.9 692.823Z" fill="#F49800"/>
<path fillRule="evenodd" clipRule="evenodd" d="M1698.81 675.172C1689.3 665.672 1673.69 665.672 1664.19 675.172L1613.5 725.816C1604 735.316 1604 750.918 1613.5 760.418C1623.01 769.917 1638.62 769.917 1648.13 760.418L1698.81 709.773C1708.32 700.274 1708.32 684.671 1698.81 675.172Z" fill="#54C2E2"/>
<path d="M1613.38 775.831C1641.58 775.831 1664.44 752.987 1664.44 724.809C1664.44 696.63 1641.58 673.787 1613.38 673.787C1585.18 673.787 1562.32 696.63 1562.32 724.809C1562.32 752.987 1585.18 775.831 1613.38 775.831Z" fill="#2C56A4"/>
<path fillRule="evenodd" clipRule="evenodd" d="M1650.02 689.264C1658.96 698.449 1664.44 710.968 1664.44 724.809C1664.44 752.994 1641.58 775.831 1613.38 775.831C1599.59 775.831 1587 770.358 1577.81 761.424L1650.02 689.264Z" fill="#407EC1"/>
</g>
</g>
<defs>
<clipPath id="clip0_389_5807">
<rect width="190" height="117" fill="white" transform="translate(-80 -40)"/>
</clipPath>
<clipPath id="clip1_389_5807">
<rect width="190" height="117" fill="white" transform="translate(-80 314)"/>
</clipPath>
<clipPath id="clip2_389_5807">
<rect width="190" height="117" fill="white" transform="translate(-80 668)"/>
</clipPath>
<clipPath id="clip3_389_5807">
<rect width="190" height="117" fill="white" transform="translate(148 137)"/>
</clipPath>
<clipPath id="clip4_389_5807">
<rect width="190" height="117" fill="white" transform="translate(148 491)"/>
</clipPath>
<clipPath id="clip5_389_5807">
<rect width="190" height="117" fill="white" transform="translate(696 137)"/>
</clipPath>
<clipPath id="clip6_389_5807">
<rect width="190" height="117" fill="white" transform="translate(696 491)"/>
</clipPath>
<clipPath id="clip7_389_5807">
<rect width="190" height="117" fill="white" transform="translate(1244 137)"/>
</clipPath>
<clipPath id="clip8_389_5807">
<rect width="190" height="117" fill="white" transform="translate(1244 491)"/>
</clipPath>
<clipPath id="clip9_389_5807">
<rect width="190" height="117" fill="white" transform="translate(1792 137)"/>
</clipPath>
<clipPath id="clip10_389_5807">
<rect width="190" height="117" fill="white" transform="translate(1792 491)"/>
</clipPath>
<clipPath id="clip11_389_5807">
<rect width="190" height="117" fill="white" transform="translate(422 -40)"/>
</clipPath>
<clipPath id="clip12_389_5807">
<rect width="190" height="117" fill="white" transform="translate(422 314)"/>
</clipPath>
<clipPath id="clip13_389_5807">
<rect width="190" height="117" fill="white" transform="translate(422 668)"/>
</clipPath>
<clipPath id="clip14_389_5807">
<rect width="190" height="117" fill="white" transform="translate(970 -40)"/>
</clipPath>
<clipPath id="clip15_389_5807">
<rect width="190" height="117" fill="white" transform="translate(970 314)"/>
</clipPath>
<clipPath id="clip16_389_5807">
<rect width="190" height="117" fill="white" transform="translate(970 668)"/>
</clipPath>
<clipPath id="clip17_389_5807">
<rect width="190" height="117" fill="white" transform="translate(1518 -40)"/>
</clipPath>
<clipPath id="clip18_389_5807">
<rect width="190" height="117" fill="white" transform="translate(1518 314)"/>
</clipPath>
<clipPath id="clip19_389_5807">
<rect width="190" height="117" fill="white" transform="translate(1518 668)"/>
</clipPath>
</defs>
</svg>
