<svg width="161" height="117" viewBox="0 0 161 117" fill="none" xmlns="http://www.w3.org/2000/svg">
<g opacity="0.1" clip-path="url(#clip0_273_1351)">
<path d="M57.9047 24.824L7.15504 75.5376C-2.40899 85.0949 -2.40899 100.59 7.15504 110.147C16.7191 119.705 32.2254 119.705 41.7895 110.147L92.5391 59.4338C102.103 49.8766 102.103 34.3812 92.5391 24.824C82.9751 15.2667 67.4687 15.2667 57.9047 24.824Z" fill="#F49800"/>
<path fillRule="evenodd" clipRule="evenodd" d="M180.812 7.17205C171.305 -2.3277 155.692 -2.3277 146.186 7.17205L95.5052 57.8164C85.9987 67.3161 85.9987 82.9184 95.5052 92.4181C105.012 101.918 120.625 101.918 130.132 92.4181L180.812 41.7738C190.318 32.274 190.318 16.6718 180.812 7.17205Z" fill="#54C2E2"/>
<path d="M95.3806 107.832C123.579 107.832 146.439 84.9883 146.439 56.8098C146.439 28.6312 123.579 5.78796 95.3806 5.78796C67.182 5.78796 44.3225 28.6312 44.3225 56.8098C44.3225 84.9883 67.182 107.832 95.3806 107.832Z" fill="#2C56A4"/>
<path fillRule="evenodd" clipRule="evenodd" d="M132.021 21.2643C140.961 30.4495 146.439 42.969 146.439 56.8097C146.439 84.9944 123.585 107.831 95.3805 107.831C81.5929 107.831 69.0015 102.358 59.8098 93.4246L132.021 21.2643Z" fill="#407EC1"/>
</g>
<defs>
<clipPath id="clip0_273_1351">
<rect width="190" height="117" fill="white"/>
</clipPath>
</defs>
</svg>
