<svg width="184" height="64" viewBox="0 0 184 64" fill="none" xmlns="http://www.w3.org/2000/svg">
<g clip-path="url(#clip0_273_1428)">
<path d="M20.4188 8.699L2.52286 26.4704C-0.849724 29.8196 -0.849725 35.2496 2.52286 38.5987C5.89544 41.9478 11.3635 41.9478 14.7361 38.5987L32.632 20.8272C36.0046 17.4781 36.0046 12.0481 32.632 8.699C29.2594 5.34988 23.7914 5.34988 20.4188 8.699Z" fill="#F49800"/>
<path fillRule="evenodd" clipRule="evenodd" d="M63.7603 2.51327C60.408 -0.815702 54.9023 -0.815702 51.55 2.51327L33.6785 20.2604C30.3262 23.5894 30.3262 29.0568 33.6785 32.3858C37.0308 35.7148 42.5366 35.7148 45.8889 32.3858L63.7603 14.6387C67.1126 11.3097 67.1126 5.84224 63.7603 2.51327Z" fill="#54C2E2"/>
<path d="M33.634 37.7871C43.5777 37.7871 51.6387 29.7822 51.6387 19.9077C51.6387 10.0332 43.5777 2.02827 33.634 2.02827C23.6903 2.02827 15.6293 10.0332 15.6293 19.9077C15.6293 29.7822 23.6903 37.7871 33.634 37.7871Z" fill="#2C56A4"/>
<path fillRule="evenodd" clipRule="evenodd" d="M46.5547 7.4516C49.7071 10.6703 51.6386 15.0575 51.6386 19.9077C51.6386 29.7844 43.5798 37.7871 33.6339 37.7871C28.772 37.7871 24.3319 35.8691 21.0906 32.7385L46.5547 7.4516Z" fill="#407EC1"/>
<path d="M89.6463 4.89424H81.8539V38.3383H89.6463V4.89424Z" fill="#2C57A7"/>
<path fillRule="evenodd" clipRule="evenodd" d="M104.609 38.3383V11.1994H93.842V4.89424H123.169V11.1994H112.402V38.3383H104.609Z" fill="#2C57A7"/>
<path fillRule="evenodd" clipRule="evenodd" d="M138.199 38.9115C135.513 38.9115 132.915 38.5588 130.451 37.8312C127.987 37.1257 125.989 36.1778 124.479 35.0314L127.121 29.2112C128.564 30.2253 130.273 31.0631 132.249 31.7244C134.225 32.3858 136.223 32.6945 138.243 32.6945C139.775 32.6945 141.018 32.5401 141.973 32.2315C142.928 31.9229 143.616 31.504 144.06 30.9749C144.504 30.4237 144.726 29.8064 144.726 29.123C144.726 28.2411 144.371 27.5136 143.66 27.0066C142.95 26.4775 142.017 26.0586 140.863 25.7279C139.709 25.3972 138.443 25.0665 137.044 24.7799C135.646 24.4713 134.247 24.0965 132.849 23.6555C131.45 23.2146 130.184 22.6414 129.03 21.9359C127.876 21.2305 126.943 20.3045 126.211 19.1581C125.478 18.0117 125.123 16.5567 125.123 14.7709C125.123 12.8529 125.633 11.1113 126.677 9.546C127.72 7.98072 129.296 6.70205 131.383 5.77611C133.492 4.82812 136.112 4.36515 139.287 4.36515C141.396 4.36515 143.483 4.60766 145.547 5.11472C147.59 5.59974 149.41 6.34931 150.986 7.34139L148.589 13.2277C147.013 12.3459 145.436 11.6845 143.882 11.2436C142.306 10.8247 140.774 10.6042 139.265 10.6042C137.755 10.6042 136.512 10.7806 135.557 11.1333C134.602 11.4861 133.914 11.927 133.492 12.5002C133.071 13.0513 132.871 13.7127 132.871 14.4403C132.871 15.3001 133.226 15.9835 133.936 16.5126C134.647 17.0417 135.579 17.4606 136.734 17.7692C137.888 18.0779 139.154 18.4086 140.552 18.7172C141.951 19.0259 143.349 19.4006 144.748 19.8195C146.147 20.2384 147.412 20.7895 148.567 21.495C149.721 22.2005 150.653 23.1264 151.386 24.2728C152.096 25.4192 152.474 26.8743 152.474 28.6159C152.474 30.4899 151.941 32.2095 150.875 33.7747C149.81 35.34 148.234 36.5966 146.147 37.5446C144.038 38.4926 141.396 38.9776 138.177 38.9776L138.199 38.9115Z" fill="#2C57A7"/>
<path fillRule="evenodd" clipRule="evenodd" d="M165.55 32.1212V24.383H181.201V18.3644H165.55V11.1113H183.266V4.89424H157.824V38.3383H183.888V32.1212H165.55Z" fill="#2C57A7"/>
<path d="M183.954 47.0465H0.377228V47.9504H183.954V47.0465Z" fill="#2C57A7"/>
<path d="M180.862 60.4454C180.307 60.9967 179.62 61.2723 178.802 61.2723C177.984 61.2723 177.298 60.9967 176.743 60.4454C176.187 59.8942 175.91 59.2123 175.91 58.4C175.91 57.5949 176.187 56.9167 176.743 56.3654C177.305 55.8069 177.992 55.5277 178.802 55.5277C179.613 55.5277 180.3 55.8069 180.862 56.3654C181.425 56.9239 181.706 57.6021 181.706 58.4C181.706 59.2051 181.425 59.8869 180.862 60.4454ZM177.74 59.4771C178.024 59.76 178.379 59.9014 178.802 59.9014C179.226 59.9014 179.58 59.76 179.865 59.4771C180.15 59.1942 180.292 58.8352 180.292 58.4C180.292 57.9648 180.15 57.6057 179.865 57.3229C179.58 57.04 179.226 56.8985 178.802 56.8985C178.379 56.8985 178.024 57.04 177.74 57.3229C177.462 57.613 177.323 57.972 177.323 58.4C177.323 58.8279 177.462 59.187 177.74 59.4771Z" fill="#2C57A7"/>
<path d="M172.525 55.5277C173.262 55.5277 173.891 55.8069 174.409 56.3654C174.935 56.9239 175.198 57.6021 175.198 58.4C175.198 59.2123 174.935 59.8942 174.409 60.4454C173.898 60.9967 173.27 61.2723 172.525 61.2723C171.758 61.2723 171.166 61.0075 170.75 60.4781V63.296H169.336V55.68H170.75V56.3219C171.166 55.7924 171.758 55.5277 172.525 55.5277ZM171.177 59.5097C171.462 59.7926 171.823 59.9341 172.262 59.9341C172.7 59.9341 173.062 59.7926 173.346 59.5097C173.639 59.2196 173.785 58.8497 173.785 58.4C173.785 57.9503 173.639 57.584 173.346 57.3011C173.062 57.011 172.7 56.8659 172.262 56.8659C171.823 56.8659 171.462 57.011 171.177 57.3011C170.892 57.584 170.75 57.9503 170.75 58.4C170.75 58.8497 170.892 59.2196 171.177 59.5097Z" fill="#2C57A7"/>
<path d="M166.626 58.3347L168.631 61.12H166.998L165.815 59.4662L164.621 61.12H162.989L164.994 58.3456L163.076 55.68H164.709L165.815 57.2141L166.922 55.68H168.543L166.626 58.3347Z" fill="#2C57A7"/>
<path d="M159.348 57.9757V59.6838H162.58V61.12H157.836V53.504H162.525V54.9401H159.348V56.5613H162.251V57.9757H159.348Z" fill="#2C57A7"/>
<path d="M151.242 57.2249C151.242 57.457 151.574 57.6565 152.239 57.8233C152.473 57.8741 152.685 57.9358 152.875 58.0083C153.065 58.0736 153.254 58.1715 153.444 58.3021C153.642 58.4254 153.795 58.5922 153.905 58.8025C154.014 59.0129 154.069 59.2559 154.069 59.5315C154.069 60.09 153.857 60.5216 153.433 60.8262C153.01 61.1236 152.488 61.2723 151.867 61.2723C150.742 61.2723 149.975 60.8407 149.566 59.9776L150.793 59.2921C150.961 59.7636 151.319 59.9993 151.867 59.9993C152.371 59.9993 152.623 59.8434 152.623 59.5315C152.623 59.2994 152.29 59.0999 151.626 58.9331C151.377 58.8678 151.165 58.8025 150.99 58.7373C150.815 58.672 150.625 58.5777 150.42 58.4544C150.216 58.3238 150.059 58.1606 149.949 57.9648C149.847 57.7617 149.796 57.5259 149.796 57.2576C149.796 56.7208 149.993 56.3001 150.388 55.9955C150.789 55.6836 151.286 55.5277 151.878 55.5277C152.323 55.5277 152.729 55.6292 153.094 55.8323C153.459 56.0281 153.747 56.311 153.959 56.6809L152.754 57.3337C152.579 56.9638 152.287 56.7789 151.878 56.7789C151.695 56.7789 151.542 56.8224 151.417 56.9094C151.301 56.9892 151.242 57.0944 151.242 57.2249Z" fill="#2C57A7"/>
<path d="M149.111 58.9766H144.98C145.163 59.6584 145.678 59.9993 146.525 59.9993C147.066 59.9993 147.475 59.818 147.752 59.4553L148.892 60.1081C148.351 60.8842 147.555 61.2723 146.503 61.2723C145.598 61.2723 144.871 61.0003 144.323 60.4563C143.775 59.9123 143.501 59.2269 143.501 58.4C143.501 57.5876 143.772 56.9058 144.312 56.3545C144.845 55.8033 145.539 55.5277 146.394 55.5277C147.205 55.5277 147.866 55.8033 148.377 56.3545C148.903 56.9058 149.166 57.5876 149.166 58.4C149.166 58.5523 149.147 58.7445 149.111 58.9766ZM144.959 57.8886H147.752C147.672 57.5332 147.508 57.2612 147.259 57.0726C147.018 56.884 146.73 56.7897 146.394 56.7897C146.014 56.7897 145.7 56.8877 145.452 57.0835C145.203 57.2721 145.039 57.5405 144.959 57.8886Z" fill="#2C57A7"/>
<path d="M140.648 61.2723C139.823 61.2723 139.133 60.9967 138.577 60.4454C138.03 59.8942 137.756 59.2123 137.756 58.4C137.756 57.5876 138.03 56.9058 138.577 56.3545C139.133 55.8033 139.823 55.5277 140.648 55.5277C141.181 55.5277 141.667 55.6546 142.105 55.9085C142.544 56.1623 142.876 56.5032 143.102 56.9312L141.886 57.6384C141.777 57.4135 141.609 57.2358 141.382 57.1053C141.163 56.9747 140.915 56.9094 140.637 56.9094C140.214 56.9094 139.863 57.0509 139.585 57.3337C139.308 57.6094 139.169 57.9648 139.169 58.4C139.169 58.8207 139.308 59.1761 139.585 59.4662C139.863 59.7418 140.214 59.8797 140.637 59.8797C140.922 59.8797 141.174 59.818 141.393 59.6947C141.62 59.5641 141.788 59.3864 141.897 59.1616L143.124 59.8579C142.883 60.2931 142.54 60.6376 142.094 60.8915C141.656 61.1454 141.174 61.2723 140.648 61.2723Z" fill="#2C57A7"/>
<path d="M136.035 55.0272C135.801 55.0272 135.597 54.9438 135.421 54.7769C135.253 54.6029 135.169 54.3998 135.169 54.1677C135.169 53.9356 135.253 53.7325 135.421 53.5584C135.597 53.3843 135.801 53.2973 136.035 53.2973C136.276 53.2973 136.48 53.3843 136.648 53.5584C136.824 53.7325 136.911 53.9356 136.911 54.1677C136.911 54.3998 136.824 54.6029 136.648 54.7769C136.48 54.9438 136.276 55.0272 136.035 55.0272ZM136.747 61.12H135.334V55.68H136.747V61.12Z" fill="#2C57A7"/>
<path d="M131.76 59.488L133.096 55.68H134.652L132.57 61.12H130.96L128.878 55.68H130.434L131.76 59.488Z" fill="#2C57A7"/>
<path d="M127 55.68V56.6157C127.124 56.2748 127.336 56.0173 127.635 55.8432C127.935 55.6618 128.278 55.5712 128.665 55.5712V57.1379C128.234 57.0799 127.847 57.1669 127.504 57.399C127.168 57.6239 127 57.9974 127 58.5197V61.12H125.586V55.68H127Z" fill="#2C57A7"/>
<path d="M124.545 58.9766H120.415C120.597 59.6584 121.112 59.9993 121.959 59.9993C122.5 59.9993 122.909 59.818 123.186 59.4553L124.326 60.1081C123.785 60.8842 122.989 61.2723 121.937 61.2723C121.032 61.2723 120.305 61.0003 119.757 60.4563C119.209 59.9123 118.935 59.2269 118.935 58.4C118.935 57.5876 119.206 56.9058 119.746 56.3545C120.279 55.8033 120.973 55.5277 121.828 55.5277C122.639 55.5277 123.3 55.8033 123.811 56.3545C124.337 56.9058 124.6 57.5876 124.6 58.4C124.6 58.5523 124.582 58.7445 124.545 58.9766ZM120.393 57.8886H123.186C123.106 57.5332 122.942 57.2612 122.693 57.0726C122.452 56.884 122.164 56.7897 121.828 56.7897C121.448 56.7897 121.134 56.8877 120.886 57.0835C120.637 57.2721 120.473 57.5405 120.393 57.8886Z" fill="#2C57A7"/>
<path d="M115.367 61.2723C114.615 61.2723 113.979 61.1055 113.461 60.7718C112.942 60.4382 112.573 59.9776 112.354 59.3901L113.647 58.6393C113.947 59.4154 114.535 59.8035 115.411 59.8035C115.82 59.8035 116.127 59.731 116.331 59.5859C116.536 59.4408 116.638 59.245 116.638 58.9984C116.638 58.73 116.518 58.5233 116.277 58.3782C116.036 58.2259 115.605 58.0627 114.984 57.8886C114.312 57.6855 113.782 57.4498 113.395 57.1814C112.913 56.826 112.672 56.3038 112.672 55.6147C112.672 54.9184 112.917 54.3707 113.406 53.9718C113.895 53.5584 114.491 53.3517 115.192 53.3517C115.805 53.3517 116.35 53.5003 116.824 53.7977C117.299 54.0951 117.668 54.5158 117.931 55.0598L116.66 55.7888C116.353 55.136 115.864 54.8096 115.192 54.8096C114.885 54.8096 114.64 54.8821 114.458 55.0272C114.275 55.165 114.184 55.3463 114.184 55.5712C114.184 55.8105 114.283 56.0064 114.48 56.1587C114.699 56.311 115.086 56.4706 115.641 56.6374L116.167 56.8115C116.262 56.8405 116.426 56.9022 116.66 56.9965C116.879 57.0762 117.04 57.1524 117.142 57.2249C117.5 57.4425 117.741 57.6674 117.865 57.8995C118.055 58.2041 118.15 58.5632 118.15 58.9766C118.15 59.6802 117.891 60.2387 117.372 60.6521C116.854 61.0656 116.185 61.2723 115.367 61.2723Z" fill="#2C57A7"/>
<path d="M108.083 59.6077L109.069 60.6848L107.864 61.3702L107.163 60.6195C106.571 61.0547 105.884 61.2723 105.103 61.2723C104.321 61.2723 103.675 61.0692 103.164 60.663C102.667 60.2496 102.419 59.6983 102.419 59.0093C102.419 58.5523 102.528 58.1352 102.747 57.7581C102.974 57.3736 103.291 57.0617 103.7 56.8224C103.452 56.4379 103.328 56.0136 103.328 55.5494C103.328 54.9039 103.554 54.378 104.007 53.9718C104.46 53.5584 105.033 53.3517 105.727 53.3517C106.283 53.3517 106.776 53.4931 107.206 53.776C107.637 54.0589 107.959 54.4614 108.171 54.9837L106.878 55.7235C106.673 55.1142 106.297 54.8096 105.749 54.8096C105.486 54.8096 105.267 54.8857 105.092 55.0381C104.924 55.1904 104.84 55.3826 104.84 55.6147C104.84 55.8105 104.884 55.9919 104.971 56.1587C105.066 56.3183 105.231 56.5214 105.464 56.768L107.108 58.5523C107.269 58.2259 107.393 57.8052 107.48 57.2902L108.751 58.0083C108.605 58.6031 108.382 59.1362 108.083 59.6077ZM105.201 59.8905C105.589 59.8905 105.928 59.7999 106.22 59.6185L104.566 57.8342C104.551 57.8197 104.544 57.8088 104.544 57.8016C104.142 58.0482 103.942 58.4 103.942 58.8569C103.942 59.1761 104.051 59.4299 104.27 59.6185C104.489 59.7999 104.8 59.8905 105.201 59.8905Z" fill="#2C57A7"/>
<path d="M98.7915 58.9766H94.661C94.8436 59.6584 95.3586 59.9993 96.2058 59.9993C96.7463 59.9993 97.1554 59.818 97.4329 59.4553L98.5724 60.1081C98.0319 60.8842 97.2357 61.2723 96.1839 61.2723C95.2782 61.2723 94.5514 61.0003 94.0036 60.4563C93.4558 59.9123 93.1819 59.2269 93.1819 58.4C93.1819 57.5876 93.4522 56.9058 93.9927 56.3545C94.5259 55.8033 95.2198 55.5277 96.0744 55.5277C96.8851 55.5277 97.5461 55.8033 98.0574 56.3545C98.5833 56.9058 98.8463 57.5876 98.8463 58.4C98.8463 58.5523 98.828 58.7445 98.7915 58.9766ZM94.6391 57.8886H97.4329C97.3526 57.5332 97.1882 57.2612 96.9399 57.0726C96.6989 56.884 96.4103 56.7897 96.0744 56.7897C95.6945 56.7897 95.3805 56.8877 95.1321 57.0835C94.8838 57.2721 94.7194 57.5405 94.6391 57.8886Z" fill="#2C57A7"/>
<path d="M90.7609 56.3219V53.504H92.1742V61.12H90.7609V60.4781C90.3445 61.0075 89.7529 61.2723 88.986 61.2723C88.2482 61.2723 87.6164 60.9967 87.0905 60.4454C86.572 59.8869 86.3127 59.2051 86.3127 58.4C86.3127 57.6021 86.572 56.9239 87.0905 56.3654C87.6164 55.8069 88.2482 55.5277 88.986 55.5277C89.7529 55.5277 90.3445 55.7924 90.7609 56.3219ZM88.1533 59.5097C88.4528 59.7926 88.818 59.9341 89.2489 59.9341C89.6872 59.9341 90.0487 59.7926 90.3336 59.5097C90.6184 59.2196 90.7609 58.8497 90.7609 58.4C90.7609 57.9503 90.6184 57.584 90.3336 57.3011C90.0487 57.011 89.6872 56.8659 89.2489 56.8659C88.8107 56.8659 88.4455 57.011 88.1533 57.3011C87.8684 57.584 87.726 57.9503 87.726 58.4C87.726 58.8497 87.8684 59.2196 88.1533 59.5097Z" fill="#2C57A7"/>
<path d="M83.9135 56.3219V55.68H85.3268V61.12H83.9135V60.4781C83.4898 61.0075 82.8945 61.2723 82.1276 61.2723C81.3972 61.2723 80.769 60.9967 80.2431 60.4454C79.7245 59.8869 79.4652 59.2051 79.4652 58.4C79.4652 57.6021 79.7245 56.9239 80.2431 56.3654C80.769 55.8069 81.3972 55.5277 82.1276 55.5277C82.8945 55.5277 83.4898 55.7924 83.9135 56.3219ZM81.3059 59.5097C81.5907 59.7926 81.9523 59.9341 82.3905 59.9341C82.8288 59.9341 83.1904 59.7926 83.4752 59.5097C83.7674 59.2196 83.9135 58.8497 83.9135 58.4C83.9135 57.9503 83.7674 57.584 83.4752 57.3011C83.1904 57.011 82.8288 56.8659 82.3905 56.8659C81.9523 56.8659 81.5907 57.011 81.3059 57.3011C81.021 57.584 80.8786 57.9503 80.8786 58.4C80.8786 58.8497 81.021 59.2196 81.3059 59.5097Z" fill="#2C57A7"/>
<path d="M77.4615 55.68V56.6157C77.5856 56.2748 77.7975 56.0173 78.0969 55.8432C78.3964 55.6618 78.7397 55.5712 79.1268 55.5712V57.1379C78.6959 57.0799 78.3088 57.1669 77.9655 57.399C77.6295 57.6239 77.4615 57.9974 77.4615 58.5197V61.12H76.0481V55.68H77.4615Z" fill="#2C57A7"/>
<path d="M70.3228 53.504H75.9653V54.9401H73.8945V61.12H72.3826V54.9401H70.3228V53.504Z" fill="#2C57A7"/>
<path d="M66.7942 61.12H65.3808V53.1776H66.7942V61.12Z" fill="#2C57A7"/>
<path d="M62.6858 56.3219V55.68H64.0992V61.12H62.6858V60.4781C62.2622 61.0075 61.6669 61.2723 60.8999 61.2723C60.1695 61.2723 59.5414 60.9967 59.0155 60.4454C58.4969 59.8869 58.2376 59.2051 58.2376 58.4C58.2376 57.6021 58.4969 56.9239 59.0155 56.3654C59.5414 55.8069 60.1695 55.5277 60.8999 55.5277C61.6669 55.5277 62.2622 55.7924 62.6858 56.3219ZM60.0782 59.5097C60.3631 59.7926 60.7246 59.9341 61.1629 59.9341C61.6011 59.9341 61.9627 59.7926 62.2476 59.5097C62.5397 59.2196 62.6858 58.8497 62.6858 58.4C62.6858 57.9503 62.5397 57.584 62.2476 57.3011C61.9627 57.011 61.6011 56.8659 61.1629 56.8659C60.7246 56.8659 60.3631 57.011 60.0782 57.3011C59.7934 57.584 59.6509 57.9503 59.6509 58.4C59.6509 58.8497 59.7934 59.2196 60.0782 59.5097Z" fill="#2C57A7"/>
<path d="M55.2449 55.5277C55.8512 55.5277 56.3442 55.7271 56.724 56.1261C57.1184 56.5322 57.3157 57.0835 57.3157 57.7798V61.12H55.9023V57.9539C55.9023 57.5985 55.8037 57.3229 55.6065 57.127C55.4166 56.9312 55.1536 56.8333 54.8176 56.8333C54.4451 56.8333 54.1493 56.9493 53.9302 57.1814C53.7184 57.4063 53.6124 57.7399 53.6124 58.1824V61.12H52.1991V55.68H53.6124V56.2893C53.9484 55.7815 54.4926 55.5277 55.2449 55.5277Z" fill="#2C57A7"/>
<path d="M50.3612 60.4454C49.8061 60.9967 49.1195 61.2723 48.3014 61.2723C47.4833 61.2723 46.7968 60.9967 46.2416 60.4454C45.6865 59.8942 45.409 59.2123 45.409 58.4C45.409 57.5949 45.6865 56.9167 46.2416 56.3654C46.8041 55.8069 47.4907 55.5277 48.3014 55.5277C49.1122 55.5277 49.7988 55.8069 50.3612 56.3654C50.9236 56.9239 51.2048 57.6021 51.2048 58.4C51.2048 59.2051 50.9236 59.8869 50.3612 60.4454ZM47.2387 59.4771C47.5235 59.76 47.8778 59.9014 48.3014 59.9014C48.7251 59.9014 49.0793 59.76 49.3642 59.4771C49.649 59.1942 49.7915 58.8352 49.7915 58.4C49.7915 57.9648 49.649 57.6057 49.3642 57.3229C49.0793 57.04 48.7251 56.8985 48.3014 56.8985C47.8778 56.8985 47.5235 57.04 47.2387 57.3229C46.9611 57.613 46.8223 57.972 46.8223 58.4C46.8223 58.8279 46.9611 59.187 47.2387 59.4771Z" fill="#2C57A7"/>
<path d="M43.6881 55.0272C43.4543 55.0272 43.2498 54.9438 43.0745 54.7769C42.9065 54.6029 42.8225 54.3998 42.8225 54.1677C42.8225 53.9356 42.9065 53.7325 43.0745 53.5584C43.2498 53.3843 43.4543 53.2973 43.6881 53.2973C43.9291 53.2973 44.1336 53.3843 44.3016 53.5584C44.4769 53.7325 44.5646 53.9356 44.5646 54.1677C44.5646 54.3998 44.4769 54.6029 44.3016 54.7769C44.1336 54.9438 43.9291 55.0272 43.6881 55.0272ZM44.4002 61.12H42.9869V55.68H44.4002V61.12Z" fill="#2C57A7"/>
<path d="M41.9904 55.68V57.0291H40.7523V59.2921C40.7523 59.4807 40.7998 59.6185 40.8947 59.7056C40.9897 59.7926 41.1285 59.8434 41.3111 59.8579C41.4937 59.8651 41.7201 59.8615 41.9904 59.847V61.12C41.0335 61.2288 40.3506 61.1417 39.9416 60.8589C39.5398 60.5687 39.339 60.0465 39.339 59.2921V57.0291H38.3858V55.68H39.339V54.5811L40.7523 54.1568V55.68H41.9904Z" fill="#2C57A7"/>
<path d="M36.1619 56.3219V55.68H37.5753V61.12H36.1619V60.4781C35.7383 61.0075 35.143 61.2723 34.376 61.2723C33.6456 61.2723 33.0175 60.9967 32.4916 60.4454C31.973 59.8869 31.7137 59.2051 31.7137 58.4C31.7137 57.6021 31.973 56.9239 32.4916 56.3654C33.0175 55.8069 33.6456 55.5277 34.376 55.5277C35.143 55.5277 35.7383 55.7924 36.1619 56.3219ZM33.5543 59.5097C33.8392 59.7926 34.2007 59.9341 34.639 59.9341C35.0772 59.9341 35.4388 59.7926 35.7237 59.5097C36.0158 59.2196 36.1619 58.8497 36.1619 58.4C36.1619 57.9503 36.0158 57.584 35.7237 57.3011C35.4388 57.011 35.0772 56.8659 34.639 56.8659C34.2007 56.8659 33.8392 57.011 33.5543 57.3011C33.2695 57.584 33.127 57.9503 33.127 58.4C33.127 58.8497 33.2695 59.2196 33.5543 59.5097Z" fill="#2C57A7"/>
<path d="M28.721 55.5277C29.3273 55.5277 29.8203 55.7271 30.2001 56.1261C30.5945 56.5322 30.7918 57.0835 30.7918 57.7798V61.12H29.3784V57.9539C29.3784 57.5985 29.2798 57.3229 29.0826 57.127C28.8927 56.9312 28.6297 56.8333 28.2937 56.8333C27.9212 56.8333 27.6254 56.9493 27.4063 57.1814C27.1945 57.4063 27.0886 57.7399 27.0886 58.1824V61.12H25.6752V55.68H27.0886V56.2893C27.4245 55.7815 27.9687 55.5277 28.721 55.5277Z" fill="#2C57A7"/>
<path d="M23.1833 55.68V56.6157C23.3074 56.2748 23.5192 56.0173 23.8187 55.8432C24.1182 55.6618 24.4615 55.5712 24.8486 55.5712V57.1379C24.4177 57.0799 24.0305 57.1669 23.6872 57.399C23.3512 57.6239 23.1833 57.9974 23.1833 58.5197V61.12H21.7699V55.68H23.1833Z" fill="#2C57A7"/>
<path d="M20.7285 58.9766H16.598C16.7806 59.6584 17.2955 59.9993 18.1428 59.9993C18.6833 59.9993 19.0924 59.818 19.3699 59.4553L20.5094 60.1081C19.9688 60.8842 19.1727 61.2723 18.1209 61.2723C17.2152 61.2723 16.4884 61.0003 15.9406 60.4563C15.3928 59.9123 15.1189 59.2269 15.1189 58.4C15.1189 57.5876 15.3891 56.9058 15.9297 56.3545C16.4629 55.8033 17.1568 55.5277 18.0113 55.5277C18.8221 55.5277 19.4831 55.8033 19.9944 56.3545C20.5203 56.9058 20.7833 57.5876 20.7833 58.4C20.7833 58.5523 20.765 58.7445 20.7285 58.9766ZM16.5761 57.8886H19.3699C19.2896 57.5332 19.1252 57.2612 18.8769 57.0726C18.6358 56.884 18.3473 56.7897 18.0113 56.7897C17.6315 56.7897 17.3174 56.8877 17.0691 57.0835C16.8208 57.2721 16.6564 57.5405 16.5761 57.8886Z" fill="#2C57A7"/>
<path d="M14.5784 55.68V57.0291H13.3404V59.2921C13.3404 59.4807 13.3879 59.6185 13.4828 59.7056C13.5778 59.7926 13.7166 59.8434 13.8992 59.8579C14.0818 59.8651 14.3082 59.8615 14.5784 59.847V61.12C13.6216 61.2288 12.9387 61.1417 12.5296 60.8589C12.1279 60.5687 11.927 60.0465 11.927 59.2921V57.0291H10.9738V55.68H11.927V54.5811L13.3404 54.1568V55.68H14.5784Z" fill="#2C57A7"/>
<path d="M8.16741 55.5277C8.77365 55.5277 9.26668 55.7271 9.6465 56.1261C10.0409 56.5322 10.2381 57.0835 10.2381 57.7798V61.12H8.82478V57.9539C8.82478 57.5985 8.72618 57.3229 8.52897 57.127C8.33906 56.9312 8.07611 56.8333 7.74012 56.8333C7.36761 56.8333 7.07179 56.9493 6.85266 57.1814C6.64084 57.4063 6.53493 57.7399 6.53493 58.1824V61.12H5.12158V55.68H6.53493V56.2893C6.87092 55.7815 7.41508 55.5277 8.16741 55.5277Z" fill="#2C57A7"/>
<path d="M2.25568 61.12V53.504H3.76763V61.12H2.25568Z" fill="#2C57A7"/>
</g>
<defs>
<clipPath id="clip0_273_1428">
<rect width="184" height="64" fill="white"/>
</clipPath>
</defs>
</svg>
